<svg width="11" height="19" viewBox="0 0 11 19" xmlns="http://www.w3.org/2000/svg">
<path d="M5.57971 -8.55573e-07C2.87738 -3.83048e-07 0.686768 2.19068 0.686768 4.89294C0.686769 7.59527 2.87738 9.7861 5.57971 9.7861C8.28204 9.7861 10.4727 7.59527 10.4727 4.89294C10.4727 2.19068 8.28204 -1.3281e-06 5.57971 -8.55573e-07ZM5.57971 6.91572C4.46266 6.91572 3.55708 6.01006 3.55708 4.89301C3.55708 3.77596 4.46266 2.87038 5.57971 2.87038C6.69676 2.87038 7.60234 3.77596 7.60234 4.89301C7.60234 6.01006 6.69676 6.91572 5.57971 6.91572Z"/>
<path d="M7.30707 13.68C9.26592 13.2809 10.4398 12.3533 10.5019 12.3035C11.0751 11.8438 11.1671 11.0065 10.7074 10.4332C10.2478 9.86001 9.41058 9.76794 8.83725 10.2276C8.82513 10.2374 7.57315 11.1978 5.5132 11.1992C3.45331 11.1978 2.17487 10.2374 2.16275 10.2276C1.58942 9.76794 0.752175 9.86002 0.292556 10.4332C-0.167134 11.0065 -0.0750552 11.8438 0.498139 12.3035C0.561088 12.354 1.78338 13.3058 3.79712 13.6954L0.990599 16.6285C0.480565 17.1574 0.495899 17.9996 1.02484 18.5097C1.28301 18.7586 1.61575 18.8823 1.94821 18.8823C2.29677 18.8823 2.64499 18.7461 2.90603 18.4754L5.51327 15.698L8.38386 18.4934C8.90398 19.0126 9.74619 19.0118 10.2653 18.4919C10.7845 17.9719 10.7838 17.1295 10.2639 16.6104L7.30707 13.68Z"/>
</svg>
