<svg width="21" height="10" viewBox="0 0 21 10" xmlns="http://www.w3.org/2000/svg">
<path d="M17.4262 5.73429C17.0867 5.38429 17.1838 5.22857 17.4262 4.91571C17.4306 4.91214 20.2333 1.75071 20.5221 0.678571L20.5238 0.677857C20.6673 0.287143 20.5238 0 19.8299 0L17.5339 0C16.9493 0 16.6798 0.246429 16.5354 0.522143C16.5354 0.522143 15.3664 2.80643 13.7126 4.28714C13.1788 4.715 12.9321 4.85214 12.6407 4.85214C12.4972 4.85214 12.2741 4.715 12.2741 4.32429L12.2741 0.677857C12.2741 0.209286 12.1104 0 11.6265 0L8.01615 0C7.64952 0 7.43163 0.218571 7.43163 0.422143C7.43163 0.866429 8.25854 0.968571 8.34429 2.21857L8.34429 4.93071C8.34429 5.525 8.21216 5.63429 7.91902 5.63429C7.1385 5.63429 5.24406 3.34071 4.12139 0.715714C3.89476 0.206428 3.67338 0.000714234 3.08448 0.000714234L0.787527 0.000714234C0.13213 0.000714234 0 0.247143 0 0.522857C0 1.01 0.780527 3.43214 3.62963 6.63214C5.52844 8.81643 8.20253 10 10.6351 10C12.0973 10 12.2758 9.73714 12.2758 9.285C12.2758 7.19786 12.1437 7.00071 12.8761 7.00071C13.2156 7.00071 13.8001 7.13786 15.1652 8.19143C16.7253 9.44071 16.9817 10 17.855 10L20.1511 10C20.8056 10 21.1372 9.73714 20.9465 9.21857C20.5098 8.12786 17.5592 5.88429 17.4262 5.73429Z"/>
</svg>
