<svg width="80" height="80" viewBox="0 0 80 80" fill="none" xmlns="http://www.w3.org/2000/svg">
<path d="M40 6.12722C40 2.74325 37.241 -0.0479655 33.8967 0.468375C30.7439 0.955131 27.6535 1.81842 24.6927 3.04482C19.8396 5.05501 15.4301 8.00139 11.7157 11.7157C8.00138 15.4301 5.05501 19.8396 3.04482 24.6927C1.03463 29.5457 -1.66971e-07 34.7471 0 40C1.66971e-07 45.2529 1.03463 50.4543 3.04482 55.3073C5.05501 60.1604 8.00139 64.5699 11.7157 68.2843C15.4301 71.9986 19.8396 74.945 24.6927 76.9552C27.6535 78.1816 30.7439 79.0449 33.8967 79.5316C37.241 80.048 40 77.2568 40 73.8728C40 70.4888 37.2242 67.813 33.9224 67.0717C32.3743 66.7242 30.8551 66.2436 29.3822 65.6335C26.016 64.2392 22.9573 62.1955 20.3809 59.6191C17.8045 57.0427 15.7608 53.984 14.3665 50.6178C12.9721 47.2515 12.2544 43.6436 12.2544 40C12.2544 36.3564 12.9721 32.7485 14.3665 29.3822C15.7608 26.016 17.8045 22.9573 20.3809 20.3809C22.9573 17.8045 26.016 15.7608 29.3822 14.3665C30.8551 13.7564 32.3743 13.2758 33.9224 12.9283C37.2242 12.187 40 9.5112 40 6.12722Z" fill="url(#paint0_linear_108_55)"/>
<circle cx="45" cy="40" r="35" fill="white"/>
<path fill-rule="evenodd" clip-rule="evenodd" d="M28.158 25.3481C27.2738 25.6166 26.4093 26.361 25.9998 27.2064L25.7692 27.6823V38.1656V48.6489L26.008 49.1423C26.3212 49.7897 26.7372 50.2709 27.2687 50.601C28.1695 51.1605 27.8706 51.1374 34.8478 51.185L41.1754 51.2282L40.4332 53.1417L39.6912 55.0554L38.7911 55.1003C37.8251 55.1484 37.6323 55.1984 37.5019 55.434C37.2558 55.8791 37.5131 56.3768 38.0368 56.4689C38.1931 56.4963 41.1151 56.5079 44.5301 56.4944L50.7392 56.4698L50.9308 56.2844C51.1883 56.0351 51.1883 55.5734 50.9309 55.3239C50.7608 55.1591 50.6355 55.1355 49.7994 55.1105L48.8592 55.0824L48.6925 54.653C47.6665 52.0119 47.3911 51.2903 47.3911 51.2426C47.3911 51.2117 48.3718 51.1865 49.5705 51.1865H51.75L51.7992 52.1537C51.8429 53.0136 51.878 53.1788 52.1146 53.6442C52.4225 54.249 52.8185 54.6168 53.4911 54.9222L53.9678 55.1385H58.0085H62.0492L62.5348 54.9182C63.0918 54.6654 63.6405 54.1701 63.8922 53.6928C64.2288 53.0543 64.2488 52.5156 64.2228 44.78C64.2 37.9677 64.1852 37.3031 64.05 36.9759C63.8538 36.5012 63.4431 35.9583 63.1243 35.7528L62.8665 35.5864L62.8645 32.1335C62.8634 30.2344 62.8243 28.4251 62.7775 28.1127C62.6051 26.9582 61.9017 26.0294 60.8261 25.5364L60.2438 25.2694L44.382 25.2537C31.4347 25.241 28.4538 25.2583 28.158 25.3481ZM60.4202 26.8524C60.6809 27.0084 60.94 27.2592 61.1012 27.5115L61.3614 27.9186L61.3855 31.5628L61.4095 35.207L57.6028 35.2303C53.8217 35.2534 53.7932 35.2549 53.3923 35.446C52.9163 35.6728 52.3411 36.206 52.1203 36.6247C51.8152 37.2035 51.7755 37.8037 51.7755 41.8418V45.7785H39.4387H27.1018V37.0312C27.1018 30.4066 27.1271 28.2009 27.2063 27.9415C27.3356 27.518 28.055 26.7968 28.4773 26.6674C28.6936 26.6011 33.1663 26.5787 44.3888 26.5879L59.9994 26.6007L60.4202 26.8524ZM62.0805 36.7152C62.2525 36.8098 62.4705 36.9876 62.5649 37.1104C62.7337 37.3293 62.7374 37.4812 62.7597 45.056C62.7851 53.6094 62.8145 53.1365 62.232 53.5386C61.9646 53.7231 61.9418 53.7243 58.0463 53.7474L54.1295 53.7705L53.8425 53.5809C53.6846 53.4767 53.4838 53.2608 53.3963 53.1015C53.2446 52.8254 53.2371 52.4475 53.2371 45.1683C53.2371 36.5947 53.1958 37.1422 53.8708 36.7507L54.2258 36.5447L57.9968 36.5439C61.6517 36.5432 61.7775 36.5485 62.0805 36.7152ZM51.7755 48.4824V49.7721H40.2096H28.6436L28.2219 49.5653C27.5014 49.212 27.1125 48.5522 27.1056 47.6712L27.1018 47.1929H39.4387H51.7755V48.4824ZM56.676 51.2109C56.2335 51.4277 56.1532 52.0022 56.5205 52.3244C56.6665 52.4525 56.8768 52.4802 57.8668 52.5029C59.2314 52.5339 59.4685 52.4748 59.6477 52.0595C59.7581 51.8037 59.7585 51.7373 59.65 51.5345C59.5818 51.4067 59.4245 51.2574 59.3005 51.2027C58.9892 51.0654 56.9603 51.0717 56.676 51.2109ZM46.6201 53.1626L47.3715 55.097H44.2863C42.5894 55.097 41.2011 55.0788 41.2011 55.0566C41.2011 55.0346 41.5351 54.1539 41.9431 53.0997L42.6851 51.1829L44.2769 51.2055L45.8689 51.2282L46.6201 53.1626Z" fill="#2472FF"/>
<defs>
<linearGradient id="paint0_linear_108_55" x1="34.9091" y1="1.06944e-06" x2="74.5455" y2="65.0909" gradientUnits="userSpaceOnUse">
<stop stop-color="#1B6DFF"/>
<stop offset="1" stop-color="#1B6DFF" stop-opacity="0"/>
</linearGradient>
</defs>
</svg>
