<svg width="80" height="80" viewBox="0 0 80 80" fill="none" xmlns="http://www.w3.org/2000/svg">
<path d="M40 6.12722C40 2.74325 37.241 -0.0479655 33.8967 0.468375C30.7439 0.955131 27.6535 1.81842 24.6927 3.04482C19.8396 5.05501 15.4301 8.00139 11.7157 11.7157C8.00138 15.4301 5.05501 19.8396 3.04482 24.6927C1.03463 29.5457 -1.66971e-07 34.7471 0 40C1.66971e-07 45.2529 1.03463 50.4543 3.04482 55.3073C5.05501 60.1604 8.00139 64.5699 11.7157 68.2843C15.4301 71.9986 19.8396 74.945 24.6927 76.9552C27.6535 78.1816 30.7439 79.0449 33.8967 79.5316C37.241 80.048 40 77.2568 40 73.8728C40 70.4888 37.2242 67.813 33.9224 67.0717C32.3743 66.7242 30.8551 66.2436 29.3822 65.6335C26.016 64.2392 22.9573 62.1955 20.3809 59.6191C17.8045 57.0427 15.7608 53.984 14.3665 50.6178C12.9721 47.2515 12.2544 43.6436 12.2544 40C12.2544 36.3564 12.9721 32.7485 14.3665 29.3822C15.7608 26.016 17.8045 22.9573 20.3809 20.3809C22.9573 17.8045 26.016 15.7608 29.3822 14.3665C30.8551 13.7564 32.3743 13.2758 33.9224 12.9283C37.2242 12.187 40 9.5112 40 6.12722Z" fill="url(#paint0_linear_108_56)"/>
<circle cx="45" cy="40" r="35" fill="white"/>
<path fill-rule="evenodd" clip-rule="evenodd" d="M42.366 19.4405C39.6084 21.255 40.3505 21.0708 36.6553 20.8573C34.3732 20.7253 34.2508 20.7261 33.9764 20.8737C33.7254 21.0087 33.525 21.3536 32.4032 23.5819L31.1178 26.1356L28.5798 27.4024C26.4534 28.4636 26.0156 28.7137 25.8807 28.9438C25.724 29.2109 25.7238 29.297 25.8721 32.0828L26.0246 34.9471L24.4541 37.3163C23.1487 39.2852 22.8838 39.7375 22.8846 39.9942C22.8854 40.2488 23.1602 40.7204 24.4421 42.6684C25.4538 44.2057 25.9989 45.1126 25.9996 45.2599C26.0002 45.3845 25.9354 46.6642 25.8557 48.1036C25.7216 50.5207 25.7213 50.7431 25.8511 51.0149C25.978 51.2806 26.2382 51.4326 28.5416 52.5853L31.0915 53.8614L32.3977 56.4215C33.5185 58.6182 33.7435 59.0026 33.9828 59.1295C34.2463 59.2692 34.4175 59.2687 37.0972 59.1189L39.9328 58.9602L42.3285 60.5383C44.1627 61.7463 44.7884 62.1163 44.9976 62.1163C45.2587 62.1163 46.3625 61.4404 49.317 59.4715L50.0958 58.9525L52.8213 59.1104C54.3203 59.1971 55.6671 59.2477 55.8141 59.2224C55.9613 59.1971 56.1612 59.0895 56.2587 58.9833C56.3564 58.8772 56.9855 57.695 57.6569 56.3562L58.8781 53.9221L61.4521 52.5984C63.7855 51.3983 64.0398 51.2463 64.1711 50.9723C64.3068 50.6888 64.3057 50.4947 64.1543 47.8766L63.9927 45.0834L65.5454 42.7289C66.958 40.5865 67.0979 40.3406 67.0979 39.9988C67.0979 39.6573 66.9578 39.4107 65.5525 37.2766L64.0071 34.9301L64.1681 32.1742C64.2565 30.6584 64.3075 29.3163 64.2811 29.1916C64.2549 29.0669 64.1479 28.8868 64.0433 28.7912C63.9388 28.6958 62.7488 28.0538 61.3992 27.3646L58.9453 26.1116L57.6898 23.6616C56.9995 22.314 56.3711 21.139 56.2934 21.0503C56.2159 20.9618 56.0641 20.8555 55.956 20.8143C55.8398 20.7698 54.5992 20.7988 52.9119 20.8852L50.0641 21.031L47.9111 19.5984C45.4959 17.9912 45.3148 17.8855 44.9726 17.8855C44.8026 17.8855 44.0179 18.3535 42.366 19.4405ZM47.2761 21.4189C48.433 22.1847 49.4813 22.8367 49.6057 22.8678C49.8166 22.9207 53.1988 22.7819 54.4751 22.6679L55.0475 22.6168L56.232 24.9362C56.8834 26.2118 57.4798 27.3253 57.5573 27.4108C57.6346 27.4961 58.765 28.1133 60.0691 28.7822L62.4402 29.9986L62.3914 30.4859C62.2911 31.4821 62.1442 34.8208 62.183 35.2224C62.218 35.5876 62.4006 35.9042 63.6785 37.8184L65.1341 39.9984L63.6939 42.1629C62.902 43.3534 62.2277 44.4318 62.1957 44.5593C62.1635 44.6869 62.1909 45.8418 62.2566 47.1258C62.3222 48.4099 62.3774 49.593 62.3792 49.7552L62.3822 50.05L60.0588 51.235C58.7809 51.8868 57.6651 52.4927 57.5791 52.5815C57.4931 52.6705 56.8877 53.7878 56.2339 55.0647L55.045 57.3864L54.4307 57.3353C54.0926 57.3072 52.8927 57.2373 51.764 57.18C50.1906 57.0998 49.6597 57.0993 49.4886 57.1769C49.366 57.2329 48.3426 57.8859 47.2148 58.6284C46.0867 59.3708 45.1195 59.9953 45.0651 60.0162C45.0108 60.0371 43.9677 59.3908 42.7469 58.5799L40.5274 57.1058L39.9038 57.1071C39.5608 57.1078 38.3097 57.166 37.1236 57.2362C35.9376 57.3065 34.9588 57.3544 34.9486 57.3427C34.9383 57.3312 34.4152 56.2916 33.7863 55.0325C33.1573 53.7733 32.5786 52.6707 32.5004 52.5819C32.4221 52.4933 31.3068 51.8961 30.0219 51.255C28.737 50.6138 27.6717 50.0761 27.6546 50.0604C27.6375 50.0447 27.6864 48.9313 27.7634 47.5863C27.8404 46.2413 27.903 45.0022 27.9027 44.8327C27.9021 44.579 27.6413 44.1301 26.4311 42.3002C25.6221 41.077 24.9602 40.0411 24.9602 39.9984C24.9602 39.9556 25.6221 38.9241 26.4311 37.7066C27.66 35.857 27.9021 35.4405 27.9027 35.1767C27.903 35.003 27.8404 33.7604 27.7634 32.4154C27.6864 31.0705 27.6375 29.9571 27.6546 29.9414C27.6717 29.9256 28.737 29.388 30.0219 28.7468C31.3068 28.1056 32.4221 27.5085 32.5004 27.4198C32.5786 27.3311 33.1573 26.2284 33.7863 24.9693C34.4152 23.7102 34.9393 22.6695 34.9509 22.6566C34.9625 22.6437 35.9802 22.6923 37.2126 22.7645C38.4449 22.8367 39.6923 22.8959 39.9844 22.8959L40.5159 22.896L42.7497 21.4251C43.9783 20.6161 45.026 19.9705 45.0781 19.9904C45.1301 20.0103 46.1192 20.6531 47.2761 21.4189ZM42.8709 26.392C41.9709 26.552 40.9345 26.8249 40.2505 27.082C35.5735 28.8396 32.214 32.917 31.4005 37.8232C31.2155 38.9388 31.215 41.0745 31.3995 42.1785C32.3114 47.6364 36.3361 52.0173 41.6572 53.3441C42.9136 53.6574 43.6621 53.7466 45.034 53.7459C48.8223 53.7441 52.196 52.3255 54.8676 49.6114C57.4092 47.0294 58.7914 43.6439 58.7914 40.0009C58.7914 37.2092 58.0483 34.7475 56.4963 32.3987C54.5118 29.3952 51.422 27.2956 47.846 26.5209C46.7486 26.2831 43.8983 26.2093 42.8709 26.392ZM46.2388 28.1692C51.1048 28.6677 55.195 32.1106 56.4942 36.8014C56.8111 37.9451 56.9147 38.7348 56.9147 40.0009C56.9147 43.3603 55.657 46.2864 53.2002 48.6424C51.1976 50.5627 48.5794 51.6923 45.683 51.8855C44.2235 51.9828 42.1862 51.6734 40.8117 51.1458C38.3867 50.2147 36.1789 48.3906 34.8503 46.2208C32.3756 42.1792 32.5547 36.9782 35.3006 33.133C37.8124 29.6156 41.9649 27.7313 46.2388 28.1692ZM50.3479 35.6964C50.1637 35.744 49.0401 36.7469 46.736 38.9199C44.8965 40.6548 43.3587 42.0743 43.3189 42.0743C43.2791 42.0743 42.5348 41.3542 41.6647 40.4742C40.7947 39.5943 40.0007 38.8168 39.9002 38.7465C39.6833 38.5947 39.2995 38.5809 39.0364 38.7152C38.7123 38.8806 38.5486 39.1589 38.5465 39.5474C38.5446 39.9105 38.5689 39.94 40.5881 42.0261C41.7142 43.1896 42.7646 44.2005 42.9276 44.2777C43.1735 44.3941 43.2761 44.4006 43.5342 44.3155C43.7559 44.2425 44.931 43.1885 47.63 40.6426C49.7118 38.6789 51.4395 37.0088 51.4692 36.9313C51.6003 36.59 51.5223 36.2119 51.2681 35.9582C50.9768 35.6673 50.7306 35.5973 50.3479 35.6964Z" fill="#2271FF"/>
<defs>
<linearGradient id="paint0_linear_108_56" x1="34.9091" y1="1.06944e-06" x2="74.5455" y2="65.0909" gradientUnits="userSpaceOnUse">
<stop stop-color="#1B6DFF"/>
<stop offset="1" stop-color="#1B6DFF" stop-opacity="0"/>
</linearGradient>
</defs>
</svg>
