<svg width="80" height="80" viewBox="0 0 80 80" fill="none" xmlns="http://www.w3.org/2000/svg">
<path d="M40 6.12722C40 2.74325 37.241 -0.0479655 33.8967 0.468375C30.7439 0.955131 27.6535 1.81842 24.6927 3.04482C19.8396 5.05501 15.4301 8.00139 11.7157 11.7157C8.00138 15.4301 5.05501 19.8396 3.04482 24.6927C1.03463 29.5457 -1.66971e-07 34.7471 0 40C1.66971e-07 45.2529 1.03463 50.4543 3.04482 55.3073C5.05501 60.1604 8.00139 64.5699 11.7157 68.2843C15.4301 71.9986 19.8396 74.945 24.6927 76.9552C27.6535 78.1816 30.7439 79.0449 33.8967 79.5316C37.241 80.048 40 77.2568 40 73.8728C40 70.4888 37.2242 67.813 33.9224 67.0717C32.3743 66.7242 30.8551 66.2436 29.3822 65.6335C26.016 64.2392 22.9573 62.1955 20.3809 59.6191C17.8045 57.0427 15.7608 53.984 14.3665 50.6178C12.9721 47.2515 12.2544 43.6436 12.2544 40C12.2544 36.3564 12.9721 32.7485 14.3665 29.3822C15.7608 26.016 17.8045 22.9573 20.3809 20.3809C22.9573 17.8045 26.016 15.7608 29.3822 14.3665C30.8551 13.7564 32.3743 13.2758 33.9224 12.9283C37.2242 12.187 40 9.5112 40 6.12722Z" fill="url(#paint0_linear_0_303)"/>
<circle cx="45" cy="40" r="35" fill="white"/>
<path d="M60.0833 39.5V46.7917C60.0833 51.1667 57.1667 54.0833 52.7917 54.0833H38.2083C33.8333 54.0833 30.9167 51.1667 30.9167 46.7917V39.5C30.9167 35.5333 33.3083 32.7625 37.0271 32.2958C37.4063 32.2375 37.8 32.2083 38.2083 32.2083H52.7917C53.1708 32.2083 53.5354 32.2229 53.8854 32.2812C57.6479 32.7187 60.0833 35.5042 60.0833 39.5Z" stroke="#1B6DFF" stroke-width="1.5" stroke-linecap="round" stroke-linejoin="round"/>
<path d="M53.8875 32.2812C53.5375 32.2229 53.1729 32.2083 52.7937 32.2083H38.2104C37.802 32.2083 37.4083 32.2375 37.0291 32.2958C37.2333 31.8875 37.525 31.5083 37.875 31.1583L42.6146 26.4042C44.6125 24.4208 47.85 24.4208 49.8479 26.4042L52.4 28.9854C53.3333 29.9042 53.8291 31.0708 53.8875 32.2812Z" stroke="#1B6DFF" stroke-width="1.5" stroke-linecap="round" stroke-linejoin="round"/>
<path d="M60.0833 40.2292H55.7083C54.1042 40.2292 52.7917 41.5417 52.7917 43.1458C52.7917 44.75 54.1042 46.0625 55.7083 46.0625H60.0833" stroke="#1B6DFF" stroke-width="1.5" stroke-linecap="round" stroke-linejoin="round"/>
<defs>
<linearGradient id="paint0_linear_0_303" x1="34.9091" y1="1.06944e-06" x2="74.5455" y2="65.0909" gradientUnits="userSpaceOnUse">
<stop stop-color="#1B6DFF"/>
<stop offset="1" stop-color="#1B6DFF" stop-opacity="0"/>
</linearGradient>
</defs>
</svg>
