<svg width="80" height="80" viewBox="0 0 80 80" fill="none" xmlns="http://www.w3.org/2000/svg">
<path d="M40 6.12722C40 2.74325 37.241 -0.0479655 33.8967 0.468375C30.7439 0.955131 27.6535 1.81842 24.6927 3.04482C19.8396 5.05501 15.4301 8.00139 11.7157 11.7157C8.00138 15.4301 5.05501 19.8396 3.04482 24.6927C1.03463 29.5457 -1.66971e-07 34.7471 0 40C1.66971e-07 45.2529 1.03463 50.4543 3.04482 55.3073C5.05501 60.1604 8.00139 64.5699 11.7157 68.2843C15.4301 71.9986 19.8396 74.945 24.6927 76.9552C27.6535 78.1816 30.7439 79.0449 33.8967 79.5316C37.241 80.048 40 77.2568 40 73.8728C40 70.4888 37.2242 67.813 33.9224 67.0717C32.3743 66.7242 30.8551 66.2436 29.3822 65.6335C26.016 64.2392 22.9573 62.1955 20.3809 59.6191C17.8045 57.0427 15.7608 53.984 14.3665 50.6178C12.9721 47.2515 12.2544 43.6436 12.2544 40C12.2544 36.3564 12.9721 32.7485 14.3665 29.3822C15.7608 26.016 17.8045 22.9573 20.3809 20.3809C22.9573 17.8045 26.016 15.7608 29.3822 14.3665C30.8551 13.7564 32.3743 13.2758 33.9224 12.9283C37.2242 12.187 40 9.5112 40 6.12722Z" fill="url(#paint0_linear_0_291)"/>
<circle cx="45" cy="40" r="35" fill="white"/>
<path d="M30.9167 35.125V33.6667C30.9167 29.2917 33.8333 26.375 38.2083 26.375H52.7917C57.1667 26.375 60.0833 29.2917 60.0833 33.6667V45.3333C60.0833 49.7083 57.1667 52.625 52.7917 52.625H51.3333" stroke="#2272FF" stroke-width="1.5" stroke-linecap="round" stroke-linejoin="round"/>
<path d="M33.3813 39.0771C40.1188 39.9375 45.0625 44.8959 45.9375 51.6334" stroke="#2272FF" stroke-width="1.5" stroke-linecap="round" stroke-linejoin="round"/>
<path d="M31.8208 43.9771C36.7646 44.6042 40.3958 48.25 41.0375 53.1938" stroke="#2272FF" stroke-width="1.5" stroke-linecap="round" stroke-linejoin="round"/>
<path d="M30.8875 49.5042C33.3521 49.825 35.175 51.6333 35.4958 54.1125" stroke="#2272FF" stroke-width="1.5" stroke-linecap="round" stroke-linejoin="round"/>
<defs>
<linearGradient id="paint0_linear_0_291" x1="34.9091" y1="1.06944e-06" x2="74.5455" y2="65.0909" gradientUnits="userSpaceOnUse">
<stop stop-color="#1B6DFF"/>
<stop offset="1" stop-color="#1B6DFF" stop-opacity="0"/>
</linearGradient>
</defs>
</svg>
