<svg width="102" height="102" viewBox="0 0 102 102" fill="none" xmlns="http://www.w3.org/2000/svg">
<path fill-rule="evenodd" clip-rule="evenodd" d="M23.4253 77.724C22.5054 77.4732 21.616 77.1216 20.7733 76.6755C22.1412 76.7835 23.5124 76.511 24.735 75.888L23.4253 77.724ZM24.1291 89.8335C23.5821 89.684 23.044 89.5035 22.5175 89.2929V89.0889C23.2658 89.0467 24.0083 88.9333 24.735 88.7502L23.9618 89.8314L24.1291 89.8335ZM26.8199 90.4455L25.0716 90.1068L26.3486 88.281C27.6679 87.7361 28.8843 86.9695 29.9452 86.0146L26.8178 90.4455H26.8199ZM29.8105 90.4455L40.0942 75.9615C37.9645 77.2619 36.0965 78.9487 34.5862 80.935L27.8623 90.372H29.8105V90.4455ZM64.9312 94.9437C65.0311 96.4414 65.0311 97.9441 64.9312 99.4419C64.0701 99.187 63.2282 98.8714 62.4118 98.4973L64.9638 94.9437H64.9312ZM66.0389 88.9909L60.3269 97.0408C60.7189 97.4069 61.1338 97.7476 61.5692 98.0608L64.9291 93.2913C64.9847 91.8605 65.3318 90.4562 65.9491 89.1643L66.0389 88.9909ZM68.8949 80.6698L58.8132 94.8376C59.0404 95.3146 59.3137 95.7683 59.6292 96.1921L67.5852 85.0293C68.0245 83.7305 68.3949 82.4095 68.695 81.0717V80.5311L68.8949 80.6698ZM69.3029 75.6636C69.3845 76.6541 69.3845 77.6495 69.3029 78.64L58.4909 93.8951C58.2362 93.2467 58.0316 92.5797 57.8789 91.9L69.4069 75.6636H69.3029ZM73.6705 73.9051C73.6893 74.6528 73.6332 75.4004 73.5032 76.1369C73.4304 76.56 73.3295 76.9777 73.2013 77.3874L71.9896 79.0459C71.8725 78.3733 71.6809 77.7158 71.4184 77.0855L73.6705 73.9051ZM73.2013 70.2168L69.8394 75.0883C70.3089 75.3694 70.7108 75.7504 71.0165 76.2042L73.6685 72.4833C73.6037 71.7194 73.4802 70.9617 73.2992 70.2168H73.2013ZM85.1639 79.56C85.6004 80.6086 86.2043 81.2165 86.9101 81.3185C85.9513 81.7081 84.8783 81.7081 83.9195 81.3185L85.1639 79.56ZM84.1867 76.549L81.9427 79.7293C82.3129 80.1356 82.7177 80.509 83.1524 80.8452L84.764 78.5441C84.5356 77.8791 84.3438 77.212 84.1867 76.5388V76.549ZM83.5156 73.1667C83.5156 73.9459 83.8195 74.6885 83.9236 75.3984L81.3368 79.0867L80.3597 77.6322L83.5156 73.1667ZM82.979 69.768C82.979 70.5106 83.2136 71.2899 83.3156 72.0324L79.9537 76.9713C79.6192 76.4653 79.3152 75.9513 79.0133 75.4515L83.079 69.768H82.979ZM82.416 66.2205L77.3752 73.2238C77.7426 73.6772 78.0799 74.1543 78.385 74.6518L82.7873 68.4604C82.7771 67.7097 82.5078 66.9671 82.416 66.2205ZM81.6673 62.832L75.6514 71.3205C76.0821 71.6648 76.4668 72.0632 76.7958 72.5057L82.1386 64.9577C82.1386 64.2253 81.8366 63.5154 81.6673 62.832ZM80.7595 59.7863L81.396 61.6896L74.9108 70.7554C74.4401 70.4542 73.9158 70.2464 73.3666 70.1434L80.7575 59.7577L80.7595 59.7863ZM84.558 58.7663C84.9487 59.7032 85.2413 60.6781 85.4311 61.6753C84.8101 61.1882 84.1465 60.7581 83.4482 60.3901L84.558 58.7663ZM83.3462 56.1265L80.988 59.5252C81.5399 59.6583 82.0791 59.8391 82.5996 60.0658L84.1459 57.9013C83.8766 57.3934 83.642 56.8507 83.3401 56.2428V56.1408L83.3462 56.1265ZM101.127 57.324C101.593 58.2692 101.888 59.2892 102 60.3371C101.559 59.5992 100.918 59.001 100.152 58.6113L101.127 57.3261V57.324ZM99.5132 55.1596L97.5997 57.8646C98.2362 57.8646 98.7748 58.1013 99.3113 58.2726L100.623 56.4795C100.301 56.0022 99.9286 55.5605 99.5132 55.1616V55.1596ZM97.5997 53.5276C97.681 53.5658 97.7511 53.6241 97.8037 53.6969L98.8462 54.5415L96.6022 57.7218H94.7192L97.612 53.6969L97.5997 53.5276ZM95.472 52.1853L91.7408 57.2241H93.6564L96.851 52.7585L95.472 51.9139V52.1853ZM93.2872 50.9001L94.6662 51.6773L90.7004 57.2241H88.8175L93.2627 51L93.2953 50.898L93.2872 50.9001ZM91.1105 49.572C91.5817 49.876 92.053 50.1126 92.4895 50.4166L87.8526 56.9446C87.2708 56.858 86.6974 56.7215 86.139 56.5366L91.1105 49.572ZM89.0276 48.144L89.8008 48.652L90.372 49.06L85.2292 56.304L83.6502 55.7287L89.0276 48.144ZM87.1468 46.4202L88.3218 47.5361L57.528 90.88C57.4076 89.739 57.5342 88.5854 57.8993 87.4977L87.1468 46.3651V46.4202ZM85.3638 44.5597C85.4696 44.7002 85.5946 44.8252 85.7351 44.931C85.9897 45.2199 86.2622 45.4924 86.5511 45.747L59.0845 84.2847C59.6914 82.8477 60.0978 81.3341 60.2922 79.7865L85.4658 44.4945L85.3638 44.5597ZM66.8467 69.0969L58.5786 80.4291C57.4493 80.9912 56.3894 81.6834 55.4207 82.4915L54.672 83.1341L62.8055 71.7346C64.1786 70.942 65.4839 70.0372 66.708 69.0295L66.8426 69.0969H66.8467ZM83.4829 42.8829C83.9303 43.2031 84.3463 43.5652 84.7253 43.9641L74.3417 58.5766C74.8782 57.1024 75.2944 55.5872 75.5861 54.0457L83.485 42.8829H83.4829ZM86.8428 38.352L88.2218 39.2333L87.2467 40.5511L85.7004 40.9245C85.4165 40.976 85.1359 41.0442 84.8599 41.1285L86.8428 38.352ZM61.302 72.6832L50.849 87.3712C50.8739 86.2351 50.9981 85.1033 51.2203 83.9889L58.5786 73.8399C59.4864 73.5033 60.4268 73.1646 61.302 72.7587V72.6832ZM84.558 37.1647L76.092 49.1049V49.5455C76.145 50.379 76.145 51.2151 76.092 52.0486L82.8138 42.4422L82.3772 42.2382C82.6871 42.0212 83.0131 41.8282 83.3524 41.6609L86.037 37.944C85.8396 37.8042 85.625 37.6904 85.3985 37.6054L84.558 37.1647ZM57.0323 74.1377C56.2612 74.3417 55.488 74.509 54.6802 74.6436L51.9241 78.5686C52.415 78.5033 52.9123 78.5033 53.4031 78.5686C52.8789 79.3785 52.4165 80.2268 52.02 81.1063L57.0282 74.0357L57.0323 74.1377ZM82.1039 35.9469L75.3719 45.1819C75.5258 45.975 75.63 46.7769 75.684 47.583L83.4136 36.6915C82.9444 36.4875 82.4731 36.2182 81.9672 35.9489H82.1018L82.1039 35.9469ZM53.4031 74.7456C52.7098 74.7966 52.0136 74.7966 51.3203 74.7456L47.1526 80.9023C48.1651 80.053 49.2972 79.3574 50.5124 78.8379L53.4031 74.8476V74.7456ZM79.8884 34.6596L74.7456 41.9322C74.9713 42.5984 75.162 43.2759 75.3168 43.962L81.3328 35.5062C80.8615 35.2696 80.3923 34.9656 79.8884 34.6596ZM99.6479 28.7069C100.119 28.9782 100.625 29.2822 101.062 29.4862H99.144L99.7152 28.7069H99.6479ZM97.3631 27.5237C97.9016 27.7603 98.3831 28.0317 98.8441 28.2683L98.0036 29.4515H96.084L97.361 27.591L97.3631 27.5237ZM94.9151 26.6445L92.82 29.6208C93.5193 29.5018 94.2263 29.4336 94.9355 29.4168L96.5165 27.1728L94.9151 26.6445ZM92.0591 26.3058C92.6753 26.2691 93.2931 26.2691 93.9094 26.3058L91.4614 29.6881H90.9575C89.7478 30.0594 89.915 31.414 88.8726 32.5299C88.1971 33.2123 87.3296 33.6727 86.3858 33.8497L92.0326 25.8937L92.0591 26.3058ZM88.9991 26.3058L83.0504 34.6698C83.7435 34.7269 84.4402 34.7269 85.1333 34.6698L90.984 26.4751L88.9991 26.3058ZM86.0084 26.3058L80.0272 34.729H81.908L87.924 26.316L86.0084 26.3058ZM50.184 75.1189L44.2272 83.4727C42.7653 84.8006 41.228 86.043 39.6229 87.1937L48.2582 74.9823H50.184V75.1189ZM83.077 26.0692L73.6685 39.2965C73.9378 39.8718 74.1724 40.4797 74.3743 41.055L84.9599 26.2385C84.3293 26.2218 83.7004 26.1653 83.077 26.0692ZM47.2525 74.8803L37.6074 88.4116C36.6679 88.9359 35.6891 89.3867 34.68 89.76L45.4675 74.5722C46.0428 74.5763 46.6487 74.7803 47.2525 74.8803ZM80.123 25.8672L82.0019 26.0365L73.1972 38.352C72.9626 37.8114 72.6587 37.2708 72.3812 36.7649L80.1128 25.8713L80.123 25.8672ZM44.5638 74.1377L33.3438 89.9334C32.5814 90.14 31.8067 90.2981 31.0243 90.4067L42.9542 73.4951L44.5679 74.001V74.1377H44.5638ZM77.265 25.3939L79.1132 25.5633L71.8896 35.7102C71.6072 35.2145 71.293 34.7375 70.9492 34.2822L77.2732 25.4184L77.265 25.3939ZM79.4172 22.3503C79.8908 22.3729 80.3571 22.4756 80.7962 22.6542C80.2207 22.6645 79.647 22.7211 79.0806 22.8235L79.4172 22.3503ZM42.0097 73.3258C41.5025 73.1475 41.0089 72.9327 40.5328 72.6832L38.6498 75.3535C39.2592 75.1908 39.9074 75.2636 40.4654 75.5575L42.0077 73.3258H42.0097ZM76.6612 21.877C77.2539 21.9029 77.8408 22.005 78.4074 22.1809L77.7689 23.1622C77.244 23.27 76.7278 23.4166 76.2246 23.6008C75.1475 24.0414 74.509 24.5473 74.8129 25.2573H76.2226L70.3412 33.5458C70.0393 33.1072 69.6354 32.6992 69.2662 32.2606L76.6612 21.9096V21.877ZM39.6923 72.3119L37.2055 75.684L34.5168 76.7346L38.2133 71.5245L39.6923 72.2691V72.3017V72.3119ZM73.6012 21.8076H75.6167L68.6603 31.5833L67.5179 30.5001L73.6379 21.8403L73.6012 21.8076ZM37.4728 71.092L33.0031 77.52C32.2063 77.8096 31.3877 78.0353 30.5551 78.1953L36.0958 70.38C36.5311 70.7086 36.9915 71.0026 37.4728 71.2593V71.092ZM70.0393 22.5522L65.5024 28.9109L66.7794 29.8595L72.3914 22.0116C71.5971 22.1336 70.8346 22.4109 70.1474 22.8276V22.5563L70.0393 22.5522ZM77.4323 12.1339C77.7689 11.83 78.0708 11.4913 78.4094 11.1139C78.0506 12.6929 77.3736 14.1822 76.4199 15.4908C75.4663 16.7994 74.2559 17.9 72.8627 18.7252H72.624L77.4302 11.9585V12.1278L77.4323 12.1339ZM35.3899 69.6395L29.2699 78.1953C28.5876 78.2646 27.9 78.2646 27.2177 78.1953L34.1414 68.5216L35.3858 69.5416L35.3899 69.6395ZM72.3588 14.739C73.289 14.5341 74.183 14.1903 75.0108 13.719L64.668 28.3377L63.291 27.4911L72.3588 14.739ZM35.3899 17.2747C35.845 15.9012 36.5262 14.6132 37.4054 13.464C38.9518 11.5015 40.4654 9.7757 41.7425 8.2865L35.3899 17.2747ZM33.6763 24.0414L47.7523 4.2167C47.5796 3.62935 47.3189 3.07155 46.9792 2.56226L34.68 20.0165C34.68 20.5224 34.4454 21.063 34.3434 21.573L33.7314 24.1434L33.6763 24.0414ZM26.1467 12.8092C26.0069 12.3573 25.788 11.9339 25.5 11.5587C25.9391 11.6315 26.3678 11.7569 26.777 11.932L26.1467 12.8092ZM26.1467 16.9708L28.8354 13.1825C28.4316 12.8173 27.9792 12.5098 27.491 12.2686L26.316 13.9944C26.3904 14.9897 26.3334 15.9904 26.1467 16.9708ZM24.2311 24.0414C24.5351 22.8562 24.8696 21.7729 25.2062 20.6591C25.2062 20.2185 25.4408 19.7778 25.5775 19.3739L29.5086 13.8659C29.8761 14.3253 30.1706 14.8386 30.3817 15.3877L24.2311 24.0414ZM23.2907 30.1614C23.3972 29.0214 23.5881 27.8909 23.8619 26.7791L30.9203 16.7994C31.0753 17.5918 31.1653 18.3955 31.1896 19.2025L23.2907 30.1614ZM14.0821 30.1614C14.5956 28.1293 15.5732 26.244 16.9381 24.6534L18.4171 22.7256C18.1583 23.2725 18.0425 23.8762 18.0805 24.48L14.0821 30.1614ZM13.7782 34.8963L18.1825 28.7763C18.1295 27.8754 18.1295 26.9721 18.1825 26.0712L13.8455 32.232C13.7476 33.1201 13.7476 34.0163 13.8455 34.9044L13.7782 34.8963ZM14.5187 38.2806L19.2229 31.6833C18.8466 31.2106 18.5622 30.6716 18.3845 30.0941L13.9822 36.2529C14.1494 36.9628 14.3167 37.6054 14.5187 38.2827V38.2806ZM15.6284 41.1223C15.3938 40.647 15.1919 40.1737 15.0164 39.7351C15.0348 39.6114 15.0348 39.4856 15.0164 39.3618L19.992 32.3279C20.4077 32.6678 20.8584 32.9625 21.3364 33.2071L15.7549 41.1223H15.6223H15.6284ZM16.8708 43.7254L30.9468 23.9027C30.9468 22.9561 31.1141 21.9076 31.1508 20.7917L23.2193 31.9872V34.0517L22.0075 33.5784L15.965 42.0709C16.2649 42.6442 16.5016 43.1868 16.8055 43.7274L16.8708 43.7254ZM18.1805 46.2285L31.1549 27.9623C30.9042 27.2112 30.8017 26.4187 30.853 25.6285L17.4094 44.6393L18.2498 46.2285H18.1805ZM19.3922 48.9009L47.5565 9.29222C47.9451 8.21148 48.1049 7.06177 48.0257 5.91602L18.6191 47.328C18.921 47.9053 19.1576 48.5133 19.3922 49.0559V48.9009ZM7.89684 52.02C7.52612 51.4624 7.29584 50.8234 7.22568 50.1575C7.65958 50.5448 8.22528 50.7514 8.80668 50.7348L7.89684 52.0527V52.02ZM9.77976 53.6765L12.4318 49.9555C11.5586 50.1595 10.7528 50.4288 10.0123 50.5675L8.46804 52.7299C8.84603 53.1195 9.28927 53.4398 9.77772 53.6765H9.77976ZM12.1645 54.6965C11.6273 54.5354 11.1 54.3426 10.5856 54.1192L13.7782 49.6557C14.4569 49.5353 15.1516 49.5353 15.8304 49.6557L12.1584 54.7557V54.6904L12.1645 54.6965ZM14.7533 55.4064L18.3172 50.3656C17.8595 50.0848 17.3604 49.8783 16.8382 49.7536L13.0723 54.9964C13.3252 55.0837 13.5844 55.1519 13.8475 55.2004C14.1417 55.2977 14.4453 55.3641 14.7533 55.3983V55.4064ZM32.028 32.6665C33.5157 31.0313 35.211 29.5979 37.0709 28.4029L45.5042 16.5709C45.3671 15.2805 45.6006 13.9777 46.1774 12.8153L32.028 32.6665ZM17.2727 56.1755L15.6611 55.6675L19.021 50.8307L19.8614 51.5753C19.8909 51.0235 19.8218 50.4709 19.6574 49.9433L28.4294 37.5625C27.3728 39.5038 26.5706 41.573 26.0426 43.7193L17.1727 56.1633H17.2706L17.2727 56.1755ZM38.9844 27.2891C39.9191 26.7659 40.8971 26.3243 41.9077 25.9692L47.891 17.5134C47.483 17.952 47.1505 18.358 46.7813 18.8313C46.4086 18.4718 46.091 18.0594 45.8388 17.6073L39.119 27.283L38.9844 27.2891ZM19.6268 57.2567C19.1745 56.9535 18.6893 56.7023 18.1805 56.508L25.7428 45.9204C25.5739 46.9723 25.4731 48.0339 25.4408 49.0987L19.6268 57.2567ZM43.3541 25.4613L50.8837 14.8737C51.9237 14.1532 53.054 13.5729 54.2456 13.1478L45.9102 24.8533C45.0936 25.015 44.286 25.2192 43.4908 25.4653L43.3541 25.4613ZM21.3425 59.2865L25.6428 53.244C25.6727 52.4147 25.6042 51.5848 25.4388 50.7715L20.3388 57.9115C20.7757 58.2856 21.1194 58.7564 21.3425 59.2865ZM0.73848 62.1282L0 60.4044C0.49081 60.6577 0.995488 60.8831 1.51164 61.0797L0.67116 62.2302L0.73848 62.1282ZM2.21748 64.4293L4.00044 61.8916L2.41944 61.351L1.24236 63.0095C1.52341 63.5146 1.85052 63.9926 2.21952 64.4375L2.21748 64.4293ZM3.96576 66.3C3.59448 65.9614 3.14976 65.5901 2.79072 65.1841L4.97352 62.1731C5.53742 62.3202 6.10965 62.4333 6.68712 62.5117L3.96576 66.3ZM6.08328 67.728L9.77976 62.5179C9.1016 62.5885 8.41792 62.5885 7.73976 62.5179L4.70424 66.7978C5.13896 67.1182 5.60033 67.4007 6.08328 67.6423V67.7097V67.728ZM8.47008 68.7093C7.93754 68.5495 7.41955 68.3448 6.92172 68.0973L11.0568 62.2323C11.928 62.0045 12.773 61.6866 13.5782 61.2837H13.8475L8.47008 68.8317V68.7093ZM11.1914 69.2825C10.6028 69.2073 10.0196 69.0949 9.4452 68.9459L15.7284 60.0841C16.5945 59.5375 17.5503 59.148 18.5518 58.9336L11.1914 69.2825ZM14.1148 69.4865C13.4767 69.5212 12.8372 69.5212 12.1992 69.4865L19.6615 59.0009C20.2351 59.0746 20.7919 59.2457 21.3078 59.5068L14.1148 69.6395V69.4865ZM47.0852 24.7187L55.6206 12.7092L56.5284 12.444C57.0323 12.444 57.5362 12.2074 58.04 12.0727L49.2007 24.5167C48.4926 24.549 47.7865 24.6171 47.0852 24.7207V24.7187ZM17.2074 69.4702L26.3486 56.6508C26.1446 55.9409 25.9794 55.2636 25.8448 54.5537L15.1919 69.5375H17.1054L17.2074 69.4702ZM50.3452 24.48H52.2934L61.6774 11.322L59.3252 11.7953L50.3492 24.4433L50.3452 24.48ZM20.4326 69.3009L27.3564 59.5905C27.1218 58.9479 26.8525 58.3665 26.6852 57.732L18.2498 69.0295H20.3L20.4326 69.3009ZM53.3358 24.6249C53.9464 24.6554 54.5536 24.7352 55.1514 24.8635L59.7883 18.3009C59.8856 17.3073 60.298 16.3709 60.9654 15.6285C62.2409 14.0312 63.2924 12.2673 64.0907 10.3857C63.7921 10.6202 63.4494 10.7923 63.0829 10.8916L53.3358 24.6249ZM23.5926 69.1989L28.6008 62.1629C28.3315 61.6549 28.0296 61.1143 27.7848 60.5717L21.6016 68.8602H23.5844L23.5926 69.1989ZM56.1 25.2246L57.781 25.6653L63.7214 17.34C62.4344 17.992 61.2462 18.8231 60.1922 19.8084V19.6391L56.1612 25.2246H56.1ZM26.6506 69.4355L30.0104 64.6986L29.07 63.2115L24.7003 69.36H26.6159L26.6506 69.4355ZM58.5766 25.3593C59.1151 25.3593 59.619 25.7673 60.1576 25.9713L67.5832 15.451C66.8447 15.451 66.0389 15.7896 65.2004 16.0263L58.4684 25.3613H58.5684L58.5766 25.3593ZM29.274 69.3335L31.518 65.9512C31.1438 65.5452 30.7956 65.1159 30.4756 64.666L27.5604 68.7929C28.1416 68.8646 28.7152 68.9889 29.274 69.1642V69.3335ZM60.996 26.316C61.4912 26.5257 61.9741 26.7634 62.4424 27.028L71.0104 14.9512C70.5678 15.0452 70.1181 15.1018 69.666 15.1205H68.8296L60.996 26.1732V26.316ZM31.3222 70.2821C29.784 71.604 28.2968 73.236 26.6526 74.4763L24.2638 77.8587C24.8404 77.9931 25.424 78.0953 26.012 78.1647L33.3397 68.0157C32.9032 67.6444 32.5237 67.2711 32.1626 66.8998L30.1471 69.7048C30.6206 69.8683 31.0638 70.1089 31.4588 70.4167L31.3242 70.2801L31.3222 70.2821Z" fill="#E37A39"/>
<path fill-rule="evenodd" clip-rule="evenodd" d="M64.4946 62.3648C67.4861 59.1515 69.2488 54.9863 69.4726 50.6017C69.6965 46.2172 68.3672 41.8941 65.7186 38.3928C63.082 34.9018 59.2864 32.4662 55.0143 31.5238C50.7423 30.5814 46.2742 31.1942 42.4136 33.252C43.0851 34.3426 43.6914 35.472 44.2292 36.6343C43.6172 36.6343 37.0362 34.2659 33.5743 33.0133C33.407 33.0133 40.6674 40.0839 48.193 47.1546H48.7662L48.5316 47.4585L49.6393 48.5071V47.0791H52.02V50.6634L52.2893 50.9C52.2747 50.8328 52.2747 50.7632 52.2893 50.696C52.3149 50.3959 52.4325 50.1109 52.6259 49.88L54.6088 47.073H57.4321L54.876 50.1534C54.6067 50.492 54.5741 50.6267 54.5741 50.696C54.6293 50.9527 54.7575 51.1879 54.9433 51.3733L57.732 54.3823L60.4187 50.7307L57.6973 47.0771H60.5533L61.8304 49.0722L63.0748 47.0771H65.9308L63.2074 50.7307L66.0307 54.519H63.1747L61.8385 52.428L60.4942 54.5271H56.1918L64.4946 62.3648Z" fill="#1B3F6E"/>
<path fill-rule="evenodd" clip-rule="evenodd" d="M37.5054 37.0974C34.5033 40.3042 32.731 44.4687 32.5015 48.8554C32.2719 53.2421 33.5999 57.5688 36.2508 61.0715C38.8863 64.5636 42.6833 66.9986 46.9566 67.9368C51.2298 68.875 55.6977 68.2547 59.5537 66.1878C58.8877 65.093 58.2796 63.964 57.732 62.8055C58.344 62.8055 64.9577 65.1739 68.3849 66.4591C68.5542 66.4591 62.7728 60.8103 56.2204 54.5843H54.9168L52.6952 51.7119C52.4799 51.4716 52.3297 51.1801 52.2587 50.8653L52.0241 50.6613V54.5863H49.6373V48.3969L48.5622 47.4157L46.614 50.184C46.614 50.388 46.31 50.592 46.31 50.7593C46.31 50.9265 46.31 51.0306 46.6813 51.4345L49.1008 54.5822H46.2101L44.3945 51.7405C44.1627 51.4443 44.0123 51.0927 43.9579 50.7205C43.992 50.4225 44.1086 50.1399 44.2945 49.9045L46.0081 47.1321H48.2929L37.5054 36.9832V37.0852V37.0974ZM41.3365 47.2464H43.7254V54.6883H41.3365V47.2464ZM38.4132 51.5426C38.6845 51.1346 38.7498 50.9653 38.7498 50.8653C38.7107 50.6537 38.618 50.4557 38.4805 50.2901L36.365 47.2464H39.119L40.7674 50.0187C40.9559 50.2524 41.0722 50.536 41.1019 50.8347C41.0638 51.2113 40.9115 51.5672 40.6654 51.8547L38.8844 54.6965H35.9938L38.4132 51.5426Z" fill="#E37A39"/>
</svg>
