<svg width="80" height="80" viewBox="0 0 80 80" fill="none" xmlns="http://www.w3.org/2000/svg">
<path d="M40 6.12722C40 2.74325 37.241 -0.0479655 33.8967 0.468375C30.7439 0.955131 27.6535 1.81842 24.6927 3.04482C19.8396 5.05501 15.4301 8.00139 11.7157 11.7157C8.00138 15.4301 5.05501 19.8396 3.04482 24.6927C1.03463 29.5457 -1.66971e-07 34.7471 0 40C1.66971e-07 45.2529 1.03463 50.4543 3.04482 55.3073C5.05501 60.1604 8.00139 64.5699 11.7157 68.2843C15.4301 71.9986 19.8396 74.945 24.6927 76.9552C27.6535 78.1816 30.7439 79.0449 33.8967 79.5316C37.241 80.048 40 77.2568 40 73.8728C40 70.4888 37.2242 67.813 33.9224 67.0717C32.3743 66.7242 30.8551 66.2436 29.3822 65.6335C26.016 64.2392 22.9573 62.1955 20.3809 59.6191C17.8045 57.0427 15.7608 53.984 14.3665 50.6178C12.9721 47.2515 12.2544 43.6436 12.2544 40C12.2544 36.3564 12.9721 32.7485 14.3665 29.3822C15.7608 26.016 17.8045 22.9573 20.3809 20.3809C22.9573 17.8045 26.016 15.7608 29.3822 14.3665C30.8551 13.7564 32.3743 13.2758 33.9224 12.9283C37.2242 12.187 40 9.5112 40 6.12722Z" fill="url(#paint0_linear_103_59)"/>
<circle cx="45" cy="40" r="35" fill="white"/>
<path d="M38.6667 54.0833H50.3333C56.1958 54.0833 57.2458 51.7354 57.5521 48.8771L58.6458 37.2104C59.0396 33.6521 58.0187 30.75 51.7917 30.75H37.2083C30.9813 30.75 29.9604 33.6521 30.3542 37.2104L31.4479 48.8771C31.7542 51.7354 32.8042 54.0833 38.6667 54.0833Z" stroke="#2071FE" stroke-width="2" stroke-miterlimit="10" stroke-linecap="round" stroke-linejoin="round"/>
<path d="M38.6667 30.7501V29.5834C38.6667 27.0022 38.6667 24.9167 43.3333 24.9167H45.6667C50.3333 24.9167 50.3333 27.0022 50.3333 29.5834V30.7501" stroke="#2071FE" stroke-width="2" stroke-miterlimit="10" stroke-linecap="round" stroke-linejoin="round"/>
<path d="M47.4167 40.9583V42.4167C47.4167 42.4313 47.4167 42.4313 47.4167 42.4458C47.4167 44.0354 47.4021 45.3333 44.5 45.3333C41.6125 45.3333 41.5833 44.05 41.5833 42.4604V40.9583C41.5833 39.5 41.5833 39.5 43.0417 39.5H45.9583C47.4167 39.5 47.4167 39.5 47.4167 40.9583Z" stroke="#2071FE" stroke-width="2" stroke-miterlimit="10" stroke-linecap="round" stroke-linejoin="round"/>
<path d="M58.5729 38.0417C55.2042 40.4917 51.3542 41.9501 47.4167 42.4459" stroke="#2071FE" stroke-width="2" stroke-miterlimit="10" stroke-linecap="round" stroke-linejoin="round"/>
<path d="M30.8208 38.4353C34.1021 40.6811 37.8062 42.0374 41.5833 42.4603" stroke="#2071FE" stroke-width="2" stroke-miterlimit="10" stroke-linecap="round" stroke-linejoin="round"/>
<defs>
<linearGradient id="paint0_linear_103_59" x1="34.9091" y1="1.06944e-06" x2="74.5455" y2="65.0909" gradientUnits="userSpaceOnUse">
<stop stop-color="#1B6DFF"/>
<stop offset="1" stop-color="#1B6DFF" stop-opacity="0"/>
</linearGradient>
</defs>
</svg>
