<svg width="45" height="45" viewBox="0 0 45 45" fill="none" xmlns="http://www.w3.org/2000/svg">
<path d="M22.5 34.125C26.6421 34.125 30 30.7671 30 26.625C30 22.4829 26.6421 19.125 22.5 19.125C18.3579 19.125 15 22.4829 15 26.625C15 30.7671 18.3579 34.125 22.5 34.125Z" stroke="white" stroke-width="1.5" stroke-miterlimit="10" stroke-linecap="round" stroke-linejoin="round"/>
<path d="M22.9687 24.2812V26.025C22.9687 26.6813 22.6312 27.3 22.05 27.6375L20.625 28.5" stroke="white" stroke-width="1.5" stroke-miterlimit="10" stroke-linecap="round" stroke-linejoin="round"/>
<path d="M15 41.25H30C37.5375 41.25 38.8875 38.2313 39.2812 34.5563L40.6875 19.5563C41.1937 14.9813 39.8812 11.25 31.875 11.25H13.125C5.11873 11.25 3.80623 14.9813 4.31248 19.5563L5.71873 34.5563C6.11248 38.2313 7.46248 41.25 15 41.25Z" stroke="white" stroke-width="1.5" stroke-miterlimit="10" stroke-linecap="round" stroke-linejoin="round"/>
<path d="M15 11.25V9.75C15 6.43125 15 3.75 21 3.75H24C30 3.75 30 6.43125 30 9.75V11.25" stroke="white" stroke-width="1.5" stroke-miterlimit="10" stroke-linecap="round" stroke-linejoin="round"/>
<path d="M40.5937 20.625C37.35 22.9875 33.75 24.6375 30.0187 25.575" stroke="white" stroke-width="1.5" stroke-miterlimit="10" stroke-linecap="round" stroke-linejoin="round"/>
<path d="M4.91248 21.1313C8.04373 23.2688 11.4562 24.7876 15 25.6501" stroke="white" stroke-width="1.5" stroke-miterlimit="10" stroke-linecap="round" stroke-linejoin="round"/>
</svg>
