<svg width="1920" height="849" viewBox="0 0 1920 849" fill="none" xmlns="http://www.w3.org/2000/svg">
<mask id="mask0_0_560" style="mask-type:alpha" maskUnits="userSpaceOnUse" x="-17" y="0" width="1988" height="849">
<rect x="-17" width="1988" height="849" rx="20" fill="#1B6DFF"/>
</mask>
<g mask="url(#mask0_0_560)">
<path d="M-516.587 -69.8229C-499.613 -92.9275 -474.153 -105.088 -440.206 -107.52C-378.374 -112.384 -343.215 -83.1992 -334.729 -19.9656C-297.145 234.185 -255.923 449.422 -212.277 625.746L53.2357 118.662C77.4835 72.4525 107.793 48.132 144.165 45.6999C197.51 42.0518 230.244 76.1006 243.581 147.846C273.89 309.578 312.687 446.99 358.757 563.729C390.28 254.857 443.625 32.3236 518.793 -105.088C536.979 -139.137 563.651 -156.161 598.81 -158.593C626.695 -161.025 652.156 -152.513 675.191 -134.272C698.226 -116.032 710.35 -92.9276 712.775 -64.9589C713.987 -43.0704 710.35 -24.8297 700.651 -6.58923C653.368 80.9649 614.571 228.105 583.049 432.398C552.74 630.61 541.828 785.046 549.103 895.705C551.527 926.105 546.678 952.858 534.554 975.963C520.005 1002.72 498.182 1017.31 470.297 1019.74C438.775 1022.17 406.041 1007.58 374.518 974.747C261.766 859.224 172.05 686.548 106.581 456.718C27.7756 612.37 -30.4191 729.109 -68.0031 806.935C-139.534 944.346 -200.153 1014.88 -251.074 1018.52C-283.808 1020.96 -311.693 992.987 -335.941 934.618C-397.773 775.318 -464.454 467.662 -535.985 11.6512C-539.622 -19.9656 -533.56 -47.9344 -516.587 -69.8229Z" fill="#1362EF"/>
</g>
</svg>
