<svg width="211" height="244" viewBox="0 0 211 244" fill="none" xmlns="http://www.w3.org/2000/svg">
<circle cx="1.80634" cy="1.80597" r="1.80597" fill="#1B6DFF"/>
<circle cx="53.4183" cy="1.80597" r="1.80597" fill="#1B6DFF"/>
<circle cx="105.03" cy="1.80597" r="1.80597" fill="#1B6DFF"/>
<circle cx="156.642" cy="1.80597" r="1.80597" fill="#1B6DFF"/>
<circle cx="208.254" cy="1.80597" r="1.80597" fill="#1B6DFF"/>
<circle cx="1.80597" cy="28.4178" r="1.80597" fill="#1B6DFF"/>
<circle cx="53.4183" cy="28.4178" r="1.80597" fill="#1B6DFF"/>
<circle cx="105.03" cy="28.4178" r="1.80597" fill="#1B6DFF"/>
<circle cx="156.642" cy="28.4178" r="1.80597" fill="#1B6DFF"/>
<circle cx="208.254" cy="28.4178" r="1.80597" fill="#1B6DFF"/>
<circle cx="1.80597" cy="55.0296" r="1.80597" fill="#1B6DFF"/>
<circle cx="53.4183" cy="55.0296" r="1.80597" fill="#1B6DFF"/>
<circle cx="105.03" cy="55.0296" r="1.80597" fill="#1B6DFF"/>
<circle cx="156.642" cy="55.0296" r="1.80597" fill="#1B6DFF"/>
<circle cx="208.254" cy="55.0296" r="1.80597" fill="#1B6DFF"/>
<circle cx="1.80597" cy="81.6419" r="1.80597" fill="#1B6DFF"/>
<circle cx="53.4183" cy="81.6419" r="1.80597" fill="#1B6DFF"/>
<circle cx="105.03" cy="81.6419" r="1.80597" fill="#1B6DFF"/>
<circle cx="156.642" cy="81.6419" r="1.80597" fill="#1B6DFF"/>
<circle cx="208.254" cy="81.6419" r="1.80597" fill="#1B6DFF"/>
<circle cx="1.80597" cy="108.254" r="1.80597" fill="#1B6DFF"/>
<circle cx="53.4183" cy="108.254" r="1.80597" fill="#1B6DFF"/>
<circle cx="105.03" cy="108.254" r="1.80597" fill="#1B6DFF"/>
<circle cx="156.642" cy="108.254" r="1.80597" fill="#1B6DFF"/>
<circle cx="208.254" cy="108.254" r="1.80597" fill="#1B6DFF"/>
<circle cx="1.80597" cy="134.866" r="1.80597" fill="#1B6DFF"/>
<circle cx="53.4183" cy="134.866" r="1.80597" fill="#1B6DFF"/>
<circle cx="105.03" cy="134.866" r="1.80597" fill="#1B6DFF"/>
<circle cx="156.642" cy="134.866" r="1.80597" fill="#1B6DFF"/>
<circle cx="208.254" cy="134.866" r="1.80597" fill="#1B6DFF"/>
<circle cx="1.80597" cy="161.478" r="1.80597" fill="#1B6DFF"/>
<circle cx="53.4183" cy="161.478" r="1.80597" fill="#1B6DFF"/>
<circle cx="105.03" cy="161.478" r="1.80597" fill="#1B6DFF"/>
<circle cx="156.642" cy="161.478" r="1.80597" fill="#1B6DFF"/>
<circle cx="208.254" cy="161.478" r="1.80597" fill="#1B6DFF"/>
<circle cx="1.80597" cy="188.09" r="1.80597" fill="#1B6DFF"/>
<circle cx="53.4183" cy="188.09" r="1.80597" fill="#1B6DFF"/>
<circle cx="105.03" cy="188.09" r="1.80597" fill="#1B6DFF"/>
<circle cx="156.642" cy="188.09" r="1.80597" fill="#1B6DFF"/>
<circle cx="208.254" cy="188.09" r="1.80597" fill="#1B6DFF"/>
<circle cx="1.80597" cy="214.701" r="1.80597" fill="#1B6DFF"/>
<circle cx="53.4183" cy="214.701" r="1.80597" fill="#1B6DFF"/>
<circle cx="105.03" cy="214.701" r="1.80597" fill="#1B6DFF"/>
<circle cx="156.642" cy="214.701" r="1.80597" fill="#1B6DFF"/>
<circle cx="208.254" cy="214.701" r="1.80597" fill="#1B6DFF"/>
<circle cx="1.80597" cy="241.313" r="1.80597" fill="#1B6DFF"/>
<circle cx="53.4183" cy="241.313" r="1.80597" fill="#1B6DFF"/>
<circle cx="105.03" cy="241.313" r="1.80597" fill="#1B6DFF"/>
<circle cx="156.642" cy="241.313" r="1.80597" fill="#1B6DFF"/>
<circle cx="208.254" cy="241.313" r="1.80597" fill="#1B6DFF"/>
</svg>
