<svg xmlns="http://www.w3.org/2000/svg" xmlns:xlink="http://www.w3.org/1999/xlink"><symbol id="btn-arrow" viewBox="0 0 42 8">
<path d="M41.8536 4.35355C42.0488 4.15829 42.0488 3.84171 41.8536 3.64645L38.6716 0.464466C38.4763 0.269204 38.1597 0.269204 37.9645 0.464466C37.7692 0.659728 37.7692 0.976311 37.9645 1.17157L40.7929 4L37.9645 6.82843C37.7692 7.02369 37.7692 7.34027 37.9645 7.53553C38.1597 7.7308 38.4763 7.7308 38.6716 7.53553L41.8536 4.35355ZM0 4.5H41.5V3.5H0V4.5Z"/>
</symbol><symbol id="ok" viewBox="0 0 11 19">
<path d="M5.57971 -8.55573e-07C2.87738 -3.83048e-07 0.686768 2.19068 0.686768 4.89294C0.686769 7.59527 2.87738 9.7861 5.57971 9.7861C8.28204 9.7861 10.4727 7.59527 10.4727 4.89294C10.4727 2.19068 8.28204 -1.3281e-06 5.57971 -8.55573e-07ZM5.57971 6.91572C4.46266 6.91572 3.55708 6.01006 3.55708 4.89301C3.55708 3.77596 4.46266 2.87038 5.57971 2.87038C6.69676 2.87038 7.60234 3.77596 7.60234 4.89301C7.60234 6.01006 6.69676 6.91572 5.57971 6.91572Z"/>
<path d="M7.30707 13.68C9.26592 13.2809 10.4398 12.3533 10.5019 12.3035C11.0751 11.8438 11.1671 11.0065 10.7074 10.4332C10.2478 9.86001 9.41058 9.76794 8.83725 10.2276C8.82513 10.2374 7.57315 11.1978 5.5132 11.1992C3.45331 11.1978 2.17487 10.2374 2.16275 10.2276C1.58942 9.76794 0.752175 9.86002 0.292556 10.4332C-0.167134 11.0065 -0.0750552 11.8438 0.498139 12.3035C0.561088 12.354 1.78338 13.3058 3.79712 13.6954L0.990599 16.6285C0.480565 17.1574 0.495899 17.9996 1.02484 18.5097C1.28301 18.7586 1.61575 18.8823 1.94821 18.8823C2.29677 18.8823 2.64499 18.7461 2.90603 18.4754L5.51327 15.698L8.38386 18.4934C8.90398 19.0126 9.74619 19.0118 10.2653 18.4919C10.7845 17.9719 10.7838 17.1295 10.2639 16.6104L7.30707 13.68Z"/>
</symbol><symbol id="tg" viewBox="0 0 19 16">
<path fill-rule="evenodd" clip-rule="evenodd" d="M1.3009 6.90067C6.40013 4.64981 9.79476 3.15417 11.4994 2.42856C16.3509 0.370208 17.3707 0.0148083 18.0264 0C18.1721 0 18.4926 0.0296168 18.7111 0.207316C18.8859 0.355399 18.9297 0.547908 18.9588 0.695991C18.9879 0.844074 19.0171 1.15505 18.9879 1.39198C18.7257 4.20556 17.5893 11.0322 17.0065 14.1715C16.7588 15.5043 16.2781 15.9485 15.8118 15.993C14.792 16.0818 14.0198 15.3118 13.0437 14.6602C11.4994 13.6384 10.6398 13.0017 9.13914 11.9947C7.40541 10.8397 8.52723 10.2029 9.51794 9.16634C9.78019 8.89979 14.2529 4.75347 14.3404 4.38326C14.3549 4.33883 14.3549 4.16113 14.2529 4.07228C14.151 3.98343 14.0053 4.01305 13.8887 4.04267C13.7284 4.07228 11.2808 5.73081 6.51668 9.00345C5.81736 9.49212 5.19088 9.72905 4.62269 9.71425C3.99621 9.69944 2.80153 9.35885 1.89824 9.06268C0.805552 8.70728 -0.068601 8.51477 0.00424505 7.89282C0.0479527 7.56704 0.485029 7.24126 1.3009 6.90067Z"/>
</symbol><symbol id="vk" viewBox="0 0 21 10">
<path d="M17.4262 5.73429C17.0867 5.38429 17.1838 5.22857 17.4262 4.91571C17.4306 4.91214 20.2333 1.75071 20.5221 0.678571L20.5238 0.677857C20.6673 0.287143 20.5238 0 19.8299 0L17.5339 0C16.9493 0 16.6798 0.246429 16.5354 0.522143C16.5354 0.522143 15.3664 2.80643 13.7126 4.28714C13.1788 4.715 12.9321 4.85214 12.6407 4.85214C12.4972 4.85214 12.2741 4.715 12.2741 4.32429L12.2741 0.677857C12.2741 0.209286 12.1104 0 11.6265 0L8.01615 0C7.64952 0 7.43163 0.218571 7.43163 0.422143C7.43163 0.866429 8.25854 0.968571 8.34429 2.21857L8.34429 4.93071C8.34429 5.525 8.21216 5.63429 7.91902 5.63429C7.1385 5.63429 5.24406 3.34071 4.12139 0.715714C3.89476 0.206428 3.67338 0.000714234 3.08448 0.000714234L0.787527 0.000714234C0.13213 0.000714234 0 0.247143 0 0.522857C0 1.01 0.780527 3.43214 3.62963 6.63214C5.52844 8.81643 8.20253 10 10.6351 10C12.0973 10 12.2758 9.73714 12.2758 9.285C12.2758 7.19786 12.1437 7.00071 12.8761 7.00071C13.2156 7.00071 13.8001 7.13786 15.1652 8.19143C16.7253 9.44071 16.9817 10 17.855 10L20.1511 10C20.8056 10 21.1372 9.73714 20.9465 9.21857C20.5098 8.12786 17.5592 5.88429 17.4262 5.73429Z"/>
</symbol></svg>