<svg width="102" height="102" viewBox="0 0 102 102" fill="none" xmlns="http://www.w3.org/2000/svg">
<path fill-rule="evenodd" clip-rule="evenodd" d="M25.5794 71.9843C23.5694 71.9843 21.7822 73.2281 21.0006 74.4448C20.5536 72.9795 19.3252 71.9843 17.3152 71.9843C15.2771 71.9843 13.4902 73.311 12.9319 74.1407V72.316H10V85.6682H12.9319V76.3522C13.5459 75.4675 14.7464 74.5549 16.0308 74.5549C17.6219 74.5549 18.2644 75.5225 18.2644 76.9605V85.6682H21.196V76.3243C21.7822 75.4675 23.0105 74.5549 24.3231 74.5549C25.8864 74.5549 26.5286 75.5225 26.5286 76.9605V85.6682H29.4602V76.0202C29.4599 73.311 28.064 71.9843 25.5794 71.9843Z" fill="#CC2222"/>
<path fill-rule="evenodd" clip-rule="evenodd" d="M39.3438 71.984C35.0723 71.984 32.4199 75.1632 32.4199 78.9782C32.4199 82.8209 35.0723 86 39.3438 86C43.6711 86 46.2963 82.8209 46.2963 78.9782C46.296 75.1632 43.6711 71.984 39.3438 71.984ZM39.3438 83.4291C36.859 83.4291 35.463 81.3553 35.463 78.9782C35.463 76.6285 36.8587 74.5552 39.3438 74.5552C41.8566 74.5552 43.2526 76.6285 43.2526 78.9782C43.2526 81.3556 41.8566 83.4291 39.3438 83.4291Z" fill="#CC2222"/>
<path fill-rule="evenodd" clip-rule="evenodd" d="M51.3213 75.9375C51.3213 74.9972 52.2987 74.3066 53.8341 74.3066C55.5094 74.3066 57.0175 74.9972 57.8264 75.9098L59.0551 73.8639C57.8264 72.7857 56.0956 71.9845 53.8059 71.9845C50.3997 71.9845 48.5012 73.8639 48.5012 76.0478C48.5012 79.0337 51.2658 79.6419 53.5825 80.1393C55.2297 80.499 56.6536 80.8031 56.6536 81.9084C56.6536 82.959 55.7601 83.7052 54.0014 83.7052C52.2421 83.7052 50.3718 82.7934 49.4223 81.8255L48.0824 83.9264C49.4783 85.2808 51.5723 85.9999 53.862 85.9999C57.4915 85.9999 59.4736 84.2031 59.4736 81.8531C59.4739 78.7019 56.5981 78.0384 54.2532 77.5407C52.6612 77.1816 51.3213 76.9051 51.3213 75.9375Z" fill="#CC2222"/>
<path fill-rule="evenodd" clip-rule="evenodd" d="M63.9406 82.1021C62.8798 82.1021 61.9863 82.9868 61.9863 84.0371C61.9863 85.0874 62.8801 85.9722 63.9406 85.9722C65.0016 85.9722 65.895 85.0874 65.895 84.0371C65.895 82.9868 65.0016 82.1021 63.9406 82.1021Z" fill="#CC2222"/>
<path fill-rule="evenodd" clip-rule="evenodd" d="M72.2052 74.2786V72.3156H69.2736V85.6681H72.2052V76.5733C72.7913 75.633 74.4388 74.8039 75.6674 74.8039C76.03 74.8039 76.3373 74.8313 76.5885 74.8868V72.0121C74.8292 72.0121 73.2105 73.0068 72.2052 74.2786Z" fill="#CC2222"/>
<path fill-rule="evenodd" clip-rule="evenodd" d="M88.0671 72.316V81.6876C87.3688 82.5997 86.0838 83.4291 84.6033 83.4291C82.9554 83.4291 81.8941 82.7935 81.8941 80.7199V72.316H78.9609V81.7708C78.9609 84.5073 80.386 86 83.2904 86C85.4132 86 87.0896 84.9773 88.0668 83.8994V85.6685H91V72.316H88.0671Z" fill="#CC2222"/>
<path fill-rule="evenodd" clip-rule="evenodd" d="M30.4146 54.0686C30.4146 56.5317 32.4387 58.5351 34.9267 58.5351H47.2987V66.8013L50.0306 63.95C53.9272 59.9523 57.0266 58.5351 61.8736 58.5351H66.3124C68.8003 58.5351 70.8244 56.5317 70.8244 54.0686V15H30.4146V54.0686ZM67.8503 17.9442V54.0686C67.8503 54.9081 67.1604 55.5908 66.3124 55.5908H61.8736C57.6043 55.5908 53.919 56.2902 49.8 60.7549L49.7838 55.5908H34.9267C34.0786 55.5908 33.3888 54.9081 33.3888 54.0686V17.9442H67.8503Z" fill="#CC2222"/>
</svg>
